<svg xmlns="http://www.w3.org/2000/svg" version="1.1" xmlns:xlink="http://www.w3.org/1999/xlink" xmlns:svgjs="http://svgjs.com/svgjs" width="512" height="512" x="0" y="0" viewBox="0 0 512 512" style="enable-background:new 0 0 512 512" xml:space="preserve" class=""><rect width="512" height="512" rx="20" ry="20" fill="#678a3b" shape="rounded"></rect><g transform="matrix(0.7,0,0,0.7,76.80001516342165,76.79999656677256)"><linearGradient id="a"><stop offset="0" stop-color="#ffbf51"></stop><stop offset="1" stop-color="#c5715a"></stop></linearGradient><linearGradient xlink:href="#a" id="g" x1="414.776" x2="419.053" y1="23.158" y2="78.762" gradientUnits="userSpaceOnUse"></linearGradient><linearGradient xlink:href="#a" id="h" x1="89.131" x2="96.617" y1="29.562" y2="94.789" gradientUnits="userSpaceOnUse"></linearGradient><linearGradient id="b"><stop offset="0" stop-color="#fffaf8"></stop><stop offset="1" stop-color="#ffdfcf"></stop></linearGradient><linearGradient xlink:href="#b" id="i" x1="237.673" x2="287.209" y1="237.993" y2="237.993" gradientUnits="userSpaceOnUse"></linearGradient><linearGradient id="c"><stop offset="0" stop-color="#f89580" stop-opacity="0"></stop><stop offset=".26" stop-color="#f2917c" stop-opacity=".261"></stop><stop offset=".595" stop-color="#e2856f" stop-opacity=".597"></stop><stop offset=".971" stop-color="#c8725b" stop-opacity=".974"></stop><stop offset=".997" stop-color="#c5715a"></stop></linearGradient><linearGradient xlink:href="#c" id="j" x1="256" x2="256" y1="200.532" y2="266.419" gradientUnits="userSpaceOnUse"></linearGradient><linearGradient xlink:href="#a" id="k" x1="38.051" x2="256.188" y1="111.735" y2="330.942" gradientUnits="userSpaceOnUse"></linearGradient><linearGradient id="d"><stop offset="0" stop-color="#883f2e" stop-opacity="0"></stop><stop offset=".298" stop-color="#8b402e" stop-opacity=".298"></stop><stop offset=".536" stop-color="#954430" stop-opacity=".536"></stop><stop offset=".753" stop-color="#a64b34" stop-opacity=".753"></stop><stop offset=".957" stop-color="#be5539" stop-opacity=".957"></stop><stop offset="1" stop-color="#c4573a"></stop></linearGradient><linearGradient xlink:href="#d" id="l" x1="92.81" x2="218.987" y1="214.037" y2="251.462" gradientUnits="userSpaceOnUse"></linearGradient><linearGradient xlink:href="#a" id="m" x1="267.41" x2="460.953" y1="205.953" y2="265.834" gradientUnits="userSpaceOnUse"></linearGradient><linearGradient xlink:href="#d" id="n" x1="405.781" x2="516.988" y1="245.033" y2="264.28" gradientUnits="userSpaceOnUse"></linearGradient><linearGradient xlink:href="#d" id="o" x1="107.872" x2="107.872" y1="253.354" y2="414.907" gradientUnits="userSpaceOnUse"></linearGradient><linearGradient xlink:href="#d" id="p" x1="404.128" x2="404.128" y1="275.809" y2="399.821" gradientUnits="userSpaceOnUse"></linearGradient><linearGradient id="e"><stop offset="0" stop-color="#5a5a5a"></stop><stop offset="1" stop-color="#444"></stop></linearGradient><linearGradient xlink:href="#e" id="q" x1="120.375" x2="161.141" y1="234.373" y2="264.381" gradientUnits="userSpaceOnUse"></linearGradient><linearGradient xlink:href="#e" id="r" x1="351.337" x2="387.573" y1="232.615" y2="259.793" gradientUnits="userSpaceOnUse"></linearGradient><linearGradient xlink:href="#b" id="s" x1="215.514" x2="236.15" y1="250.174" y2="310.536" gradientUnits="userSpaceOnUse"></linearGradient><linearGradient xlink:href="#c" id="t" x1="218.862" x2="304.406" y1="314.057" y2="418.849" gradientUnits="userSpaceOnUse"></linearGradient><linearGradient xlink:href="#b" id="u" x1="184.91" x2="264.439" y1="222.892" y2="422.231" gradientUnits="userSpaceOnUse"></linearGradient><linearGradient xlink:href="#c" id="v" x1="236.775" x2="380.061" y1="372.126" y2="496.165" gradientUnits="userSpaceOnUse"></linearGradient><linearGradient xlink:href="#b" id="w" x1="230.62" x2="264.813" y1="337.74" y2="476.871" gradientUnits="userSpaceOnUse"></linearGradient><linearGradient xlink:href="#c" id="x" x1="306.926" x2="427.192" y1="416.16" y2="481.009" gradientUnits="userSpaceOnUse"></linearGradient><linearGradient xlink:href="#c" id="y" x1="254.144" x2="254.144" y1="440.71" y2="517.929" gradientUnits="userSpaceOnUse"></linearGradient><linearGradient id="f"><stop offset="0" stop-color="#433f43" stop-opacity="0"></stop><stop offset=".299" stop-color="#3e3b3e" stop-opacity=".3"></stop><stop offset=".642" stop-color="#302e30" stop-opacity=".643"></stop><stop offset="1" stop-color="#1a1a1a"></stop></linearGradient><linearGradient xlink:href="#f" id="z" x1="256" x2="256" y1="433.709" y2="346.956" gradientUnits="userSpaceOnUse"></linearGradient><linearGradient xlink:href="#e" id="A" x1="176.145" x2="208.937" y1="339.741" y2="500.849" gradientUnits="userSpaceOnUse"></linearGradient><linearGradient xlink:href="#e" id="B" x1="300.208" x2="333" y1="314.489" y2="475.597" gradientUnits="userSpaceOnUse"></linearGradient><linearGradient xlink:href="#f" id="C" x1="220.805" x2="220.805" y1="403.413" y2="348.48" gradientUnits="userSpaceOnUse"></linearGradient><linearGradient xlink:href="#f" id="D" x1="291.195" x2="291.195" y1="403.413" y2="348.48" gradientUnits="userSpaceOnUse"></linearGradient><linearGradient xlink:href="#e" id="E" x1="248.134" x2="265.056" y1="303.344" y2="337.187" gradientUnits="userSpaceOnUse"></linearGradient><linearGradient xlink:href="#f" id="F" x1="255.06" x2="263.97" y1="315.606" y2="345.903" gradientUnits="userSpaceOnUse"></linearGradient><path fill="url(#g)" d="m329.112 77.226 63.806-54.399c25.809-22.004 64.08-20.921 88.604 2.507l17.928 17.127c17.212 16.443 4.561 45.416-19.199 43.969z" data-original="url(#g)"></path><path fill="url(#h)" d="m182.888 77.226-63.806-54.399C93.273.823 55.002 1.906 30.478 25.334L12.55 42.462c-17.211 16.443-4.56 45.416 19.2 43.969z" data-original="url(#h)"></path><path fill="url(#i)" d="M295.86 25.804h-79.72l-85.109 424.378h249.938z" data-original="url(#i)" class=""></path><path fill="url(#j)" d="M130.427 435.056h251.146l-64.876-291.684H195.304z" data-original="url(#j)" class=""></path><path fill="url(#k)" d="M216.14 25.804v118.879c0 67.16-13.33 133.639-39.21 195.609l-45.9 109.889c-.26-.07-.52-.15-.78-.23-54.97-23.63-97.13-72.73-110.289-134.189l-15.94-74.42c-6.31-29.44-4.98-58.44 2.49-85.149 8.36-29.92 24.44-56.98 46.15-78.59 31.92-31.79 76.01-51.8 125.619-51.8h37.86z" data-original="url(#k)"></path><path fill="url(#l)" d="M55.892 74.47v318.192a189.574 189.574 0 0 0 74.359 57.291c.26.08.52.16.78.23l45.9-109.889a507.568 507.568 0 0 0 39.21-195.609V25.804h-37.86c-47.958 0-90.755 18.702-122.389 48.666z" data-original="url(#l)"></path><path fill="url(#m)" d="m507.979 241.343-15.94 74.42c-13.16 61.46-55.32 110.559-110.289 134.189-.26.08-.52.16-.78.23l-45.9-109.889a507.568 507.568 0 0 1-39.21-195.609V25.804h37.86c49.61 0 93.699 20.01 125.62 51.8 21.71 21.61 37.79 48.67 46.15 78.59 7.469 26.709 8.799 55.709 2.489 85.149z" data-original="url(#m)"></path><path fill="url(#n)" d="M459.339 77.604c-27.511-27.398-64.065-46.033-105.398-50.662v358.531l27.028 64.709c.26-.07.52-.15.78-.23 54.97-23.63 97.129-72.73 110.289-134.189l15.94-74.42c6.31-29.44 4.98-58.44-2.49-85.149-8.359-29.92-24.439-56.98-46.149-78.59z" data-original="url(#n)"></path><path fill="url(#o)" d="M215.74 164.604a507.288 507.288 0 0 1-38.81 175.689l-45.9 109.889c-.26-.07-.52-.15-.78-.23-54.97-23.63-97.13-72.73-110.289-134.189l-15.94-74.42c-5.65-26.38-5.17-52.4.36-76.74H215.74z" data-original="url(#o)" class=""></path><path fill="url(#p)" d="m507.979 241.343-15.94 74.42c-13.16 61.46-55.32 110.559-110.289 134.189-.26.08-.52.16-.78.23l-45.9-109.889a507.293 507.293 0 0 1-38.81-175.689h211.359c5.53 24.339 6.01 50.359.36 76.739z" data-original="url(#p)"></path><path fill="url(#q)" d="M139.525 285.359c-16.216 0-29.361-13.146-29.361-29.362V240.94c0-16.216 13.145-29.362 29.361-29.362s29.362 13.146 29.362 29.362v15.057c0 16.217-13.146 29.362-29.362 29.362z" data-original="url(#q)" class=""></path><path fill="url(#r)" d="M372.475 285.359c-16.216 0-29.362-13.146-29.362-29.362V240.94c0-16.216 13.145-29.362 29.362-29.362 16.216 0 29.361 13.146 29.361 29.362v15.057c0 16.217-13.145 29.362-29.361 29.362z" data-original="url(#r)"></path><path fill="url(#s)" d="m402.137 380.207.778-8.053c6.619-68.502-53.498-133.592-148.771-133.592S98.753 303.653 105.373 372.155l.778 8.052c-.199 24.685 27.816 45.724 62.486 54.773 18.776 4.901 38.24 3.768 53.857-2.922 19.279-8.258 44.021-8.258 63.3 0h.001c15.617 6.689 35.082 7.822 53.857 2.921 34.669-9.048 62.684-30.088 62.485-54.772z" data-original="url(#s)"></path><path fill="url(#t)" d="m402.137 380.207.778-8.053c6.619-68.502-53.498-133.592-148.771-133.592S98.753 303.653 105.373 372.155l.778 8.052c-.199 24.685 27.816 45.724 62.486 54.773 18.776 4.901 38.24 3.768 53.857-2.922 19.279-8.258 44.021-8.258 63.3 0h.001c15.617 6.689 35.082 7.822 53.857 2.921 34.669-9.048 62.684-30.088 62.485-54.772z" data-original="url(#t)"></path><path fill="url(#u)" d="m414.607 415.649.844-8.731c7.177-74.273-58.006-144.848-161.306-144.848-103.301 0-168.484 70.575-161.306 144.849l.844 8.731c-.215 26.764 30.16 49.577 67.751 59.388 20.357 5.313 41.462 4.085 58.395-3.168 20.903-8.954 47.73-8.954 68.634 0h.001c16.933 7.253 38.037 8.481 58.395 3.168 37.587-9.812 67.963-32.625 67.748-59.389z" data-original="url(#u)"></path><path fill="url(#v)" d="m414.607 415.649.844-8.731c7.177-74.273-58.006-144.848-161.306-144.848-103.301 0-168.484 70.575-161.306 144.849l.844 8.731c-.215 26.764 30.16 49.577 67.751 59.388 20.357 5.313 41.462 4.085 58.395-3.168 20.903-8.954 47.73-8.954 68.634 0h.001c16.933 7.253 38.037 8.481 58.395 3.168 37.587-9.812 67.963-32.625 67.748-59.389z" data-original="url(#v)"></path><path fill="url(#w)" d="m415.601 415.059-2.705-10.282c-18.973-72.122-84.177-122.392-158.753-122.392-74.576 0-139.78 50.27-158.753 122.392l-2.705 10.282c-12.129 34.6 11.255 68.386 51.415 84.35 22.76 9.048 48.452 6.93 69.697-5.257a81.084 81.084 0 0 1 80.69 0h.001c21.245 12.187 46.937 14.305 69.697 5.257 40.162-15.965 63.545-49.75 51.416-84.35z" data-original="url(#w)"></path><path fill="url(#x)" d="M412.896 404.776c-18.972-72.122-84.177-122.392-158.753-122.392-13.674 0-27.03 1.697-39.846 4.901v206.591c24.897-14.05 55.369-13.963 80.191.275h.001c21.246 12.187 46.937 14.305 69.697 5.257 40.16-15.965 63.543-49.75 51.415-84.35z" data-original="url(#x)"></path><path fill="url(#y)" d="m95.391 404.777-2.705 10.282c-12.129 34.6 11.255 68.385 51.415 84.35 22.76 9.048 48.452 6.93 69.697-5.257a81.084 81.084 0 0 1 80.69 0h.001c21.246 12.187 46.937 14.305 69.697 5.257 40.16-15.965 63.543-49.75 51.415-84.35l-2.705-10.283a164.42 164.42 0 0 0-10.07-27.816H105.461a164.376 164.376 0 0 0-10.07 27.817z" data-original="url(#y)"></path><path fill="url(#z)" d="M327.04 448.202H184.96l22.84-27.53c19.58-23.61 30.36-55.03 30.36-88.48 0-4.14-3.36-7.5-7.5-7.5h50.68c-4.14 0-7.5 3.36-7.5 7.5 0 33.45 10.78 64.87 30.36 88.48z" data-original="url(#z)"></path><path fill="url(#A)" d="M235.659 324.695a7.5 7.5 0 0 0-7.5 7.5c0 29.525-9.808 58.281-26.907 78.896l-61.374 73.987a7.5 7.5 0 0 0 .984 10.561 7.464 7.464 0 0 0 4.784 1.728 7.487 7.487 0 0 0 5.776-2.711l61.374-73.988c19.579-23.603 30.362-55.024 30.362-88.472a7.498 7.498 0 0 0-7.499-7.501z" data-original="url(#A)"></path><path fill="url(#B)" d="m372.121 485.078-61.374-73.987c-17.1-20.615-26.907-49.371-26.907-78.896 0-4.142-3.357-7.5-7.5-7.5s-7.5 3.358-7.5 7.5c0 33.449 10.783 64.869 30.362 88.473l61.374 73.987a7.483 7.483 0 0 0 5.776 2.711 7.462 7.462 0 0 0 4.784-1.728 7.497 7.497 0 0 0 .985-10.56z" data-original="url(#B)"></path><path fill="url(#C)" d="M243.16 332.193c0 30.6-9.02 59.49-25.55 82.27h-19.16l2.8-3.37c17.1-20.62 26.91-49.37 26.91-78.9 0-4.14 3.36-7.5 7.5-7.5s7.5 3.36 7.5 7.5z" data-original="url(#C)"></path><path fill="url(#D)" d="M313.55 414.462h-19.16c-16.53-22.78-25.55-51.67-25.55-82.27 0-4.14 3.36-7.5 7.5-7.5s7.5 3.36 7.5 7.5c0 29.53 9.81 58.28 26.91 78.9z" data-original="url(#D)"></path><path fill="url(#E)" d="m277.807 346.626 6.255-3.394a26.805 26.805 0 0 0 14.022-23.561v-.418c0-14.804-12.001-26.806-26.806-26.806h-30.175c-14.804 0-26.806 12.001-26.806 26.806v.418a26.805 26.805 0 0 0 14.022 23.561l6.255 3.394a45.324 45.324 0 0 0 43.233 0z" data-original="url(#E)"></path><path fill="url(#F)" d="m277.807 346.626 6.255-3.394a26.805 26.805 0 0 0 14.022-23.561v-.418c0-14.804-12.001-26.806-26.806-26.806h-30.175c-14.804 0-26.806 12.001-26.806 26.806v.418a26.805 26.805 0 0 0 14.022 23.561l6.255 3.394a45.324 45.324 0 0 0 43.233 0z" data-original="url(#F)"></path></g></svg>